# xmcd
#
# Track frame offsets:
#	150
#	26477
#	53087
#	79244
#	94667
#	112549
#	130450
#	152871
#	182843
#	208097
#	228383
#	263029
#	321519
#
# Disc length: 4651 seconds
#
# Revision: 1
# Processed by: cddbd v1.5.2PL0 Copyright (c) Steve Scherf et al.
# Submitted via: EZCDAudioConverter 7.0.0.1
#
DISCID=ac12290d
DTITLE=Various Artist - Black and White Blues
DYEAR=2008
DGENRE=Blues
TTITLE0=James Brown - Woman
TTITLE1=Blood Sweat And Tears - I Love You More Than You'll Never Know
TTITLE2=Steppenwolf - The Pusher
TTITLE3=Zz Top - Jesus Just Left Chicago
TTITLE4=Love Sculpture - Summertime
TTITLE5=Cuby and The Blizzards - Crying Tears
TTITLE6=Fleetwood Mac - Love That Burns
TTITLE7=Pacific Gas and Electric - Motor City's Burning
TTITLE8=Blues Project - Black Light
TTITLE9=Iron Butterfly - Butterfly Bleu
TTITLE10=Blues Image - Clean Love
TTITLE11=Boz Scaggs - Loan Me A Dime
TTITLE12=Tindersticks - Jism
EXTD=
EXTT0=
EXTT1=
EXTT2=
EXTT3=
EXTT4=
EXTT5=
EXTT6=
EXTT7=
EXTT8=
EXTT9=
EXTT10=
EXTT11=
EXTT12=
PLAYORDER=
